<svg xmlns="http://www.w3.org/2000/svg" xmlns:xlink="http://www.w3.org/1999/xlink" version="1.1" x="0px" y="0px" viewBox="0 0 100 125" enable-background="new 0 0 100 100" xml:space="preserve"><g><path d="M74.7,20.2C74.2,13,70.2,9.7,66.8,9.7c-1,0-2,0.3-2.8,0.8c-1,0.6-2.5,1.6-4.2,3.1c-2-2.5-7-8.6-9.3-8.6c0,0,0,0,0,0   c-3,0-12.6,12.8-13.3,13.7c-0.2,0-0.3,0-0.5,0c-3.8,0-8,3.7-10.1,7.1c-1.4,2.3-1.7,4.3-1,5.8c0,0,0,0,0,0c1.5,4.3,5.6,4.9,5.7,5   c0,0,0,0,0.1,0c0.4,0,0.9,0,1.4,0c0,0,1.8,0,3.7-0.2c0.1,0.1,0.2,0.1,0.4,0.2c0.3,0.1,0.7,0.1,1.1,0.1c-0.1,1.3-0.4,4-0.9,7.3   c-0.1,0.4-0.1,0.8-0.2,1.2c-1.5-0.3-5.2-0.9-7.7-0.9c-0.9,0-3.1,0-3.2,1.6c0,0.4-0.1,0.9-0.2,1.3c-0.2,1-0.3,1.9,0.2,2.6   c0.3,0.4,0.8,0.6,1.4,0.7l0.9,0.1c1.9,0.2,6,0.5,7.8,0.5c0.1,0,0.1,0,0.2,0c-1.8,14.7-2.9,29.1,0.2,34.1c-3.1,3.7-4.3,6.1-3.5,7.3   c0.8,1.2,2.1,2.5,3.5,2.5c0.5,0,0.9-0.1,1.3-0.4c1.3-0.9,3.3-4.3,4-5.5c0.9,0.3,1.9,0.5,2.8,0.5c0,0,0,0,0,0c1,0,2-0.2,2.9-0.5   c2.8,3.5,5,5.2,6.7,5.2c1.5,0,2.3-1.1,2.7-1.7c1.3-1.8-0.7-4.5-4.4-8.2c0.8-1.7,1.4-4.1,1.3-7.3c-0.1-1.1-0.1-2.4-0.2-3.7   c-0.3-5.1-0.6-12.6-0.8-19.7c0.4,0.1,0.9,0.2,1.4,0.2c1.2,0,2.5-0.2,3.8-0.5c0.8-0.1,1.7-0.3,2.5-0.4c1-0.1,1.7-0.6,2.2-1.4   c1.5-2.5-0.5-7.2-0.5-7.4c-0.4-0.9-1.3-1.3-2.8-1.3c-2,0-4.8,0.8-6.6,1.2c0.1-4.2,0.5-7.4,1.2-8.5c0,0,0,0,0,0   c2.2-0.4,3.9-1,5.4-1.4l0.8-0.3c0.2-0.1,0.4-0.2,0.5-0.3c1-0.1,2-0.3,3-0.6C69.1,31.8,75.4,28.5,74.7,20.2z M59.3,44.8   c0.9,0,1.1,0.2,1.1,0.2c0.7,1.6,1.4,4.6,0.7,5.7c-0.2,0.3-0.4,0.4-0.8,0.5c-0.2,0-0.4,0.1-0.7,0.1l-1.2-6.4   C58.7,44.9,59,44.8,59.3,44.8z M57.9,44.9l1.2,6.4c-0.5,0.1-1,0.2-1.5,0.2c-0.3,0-0.5,0.1-0.8,0.1l-1.5-6.3   C56.2,45.3,57.1,45.1,57.9,44.9z M54.9,45.6l1.5,6.2c-0.6,0.1-1.1,0.2-1.6,0.2l-1.5-6C53.7,45.9,54.3,45.7,54.9,45.6z M53,46.1   C53,46.1,52.9,46.1,53,46.1l1.3,5.9c0,0,0,0,0,0c-0.7,0-1.3-0.1-1.3-0.3V46.1z M72.8,20.3c0,0.1,0,0.2,0,0.3L70,21.4   c-0.2-0.9-0.5-1.7-0.8-2.4l2.8-2.5C72.4,17.6,72.7,18.9,72.8,20.3z M71.8,16L69,18.5c-0.4-0.8-0.9-1.5-1.5-2l2.1-3.8   C70.5,13.5,71.3,14.6,71.8,16z M66.8,11.6c0.8,0,1.7,0.3,2.5,0.9l-2.1,3.8c-0.7-0.5-1.5-0.9-2.2-1l0.6-3.4   C65.9,11.7,66.4,11.6,66.8,11.6z M65,12.1C65,12.1,65,12.1,65,12.1l-0.5,3.1c0,0-0.1,0-0.1,0c-0.8,0-1.6,0.2-2.3,0.7l0-1.6   C63.2,13.3,64.3,12.5,65,12.1z M61.6,14.7l0,1.5c-0.5,0.4-1.1,0.9-1.8,1.6l-0.3-1.1C60.2,16,60.9,15.3,61.6,14.7z M59.4,18.3   c-0.3,0.3-0.6,0.7-1,1.1l-0.2-1.1c0.3-0.4,0.6-0.7,0.9-1.1L59.4,18.3z M38.6,27c-0.5-0.5-1.1-0.8-1.7-1.1l1.1-4.7   c0.3,0.2,0.5,0.5,0.8,0.9c0.2,0.4,0.4,0.9,0.6,1.5L38.6,27z M39.6,24.7c0.2,1.2,0.2,2.5,0.2,3.8c-0.2-0.4-0.5-0.7-0.8-1.1   L39.6,24.7z M36.7,20.8c0.2,0,0.4,0,0.5,0c0.1,0,0.3,0.1,0.4,0.1l-1.1,4.8c-0.4-0.2-0.9-0.3-1.3-0.3c-0.6-0.1-1.2-0.1-1.8-0.1   l2.7-4.4C36.3,20.8,36.5,20.8,36.7,20.8z M35.4,21l-2.6,4.2c-0.6,0-1.1,0.1-1.7,0.1l1.5-3C33.5,21.7,34.5,21.2,35.4,21z M31.7,23   l-1.2,2.4c-0.5,0.1-1,0.2-1.5,0.4C29.7,24.8,30.7,23.8,31.7,23z M32,34.8c-0.1,0-0.3,0-0.4,0c-0.4-0.1-2.7-0.9-4.2-3.7   c-0.3-0.7-0.2-1.5,0.2-2c0.8-1.2,2.9-2,5.4-2c0,0,0,0,0,0c-1.7,1-3,2.2-3,4.1c0,1.5,0.8,2.9,2.1,3.7C32.1,34.7,32,34.8,32,34.8z    M34.2,34.4c-1.8,0-3.2-1.4-3.2-3.2c0-1.8,1.4-3.2,3.2-3.2s3.2,1.4,3.2,3.2C37.4,32.9,35.9,34.4,34.2,34.4z M37.9,34.3   c-0.1,0-0.1,0-0.2,0c-0.1,0-0.1,0-0.2,0c-0.1,0-0.1,0-0.2,0c-0.1,0-0.1,0-0.2,0c-0.1,0-0.1,0-0.2,0c-0.1,0-0.1,0-0.2,0   c0,0-0.1,0-0.1,0c1-0.8,1.7-2,1.7-3.4c0-0.9-0.3-1.7-0.8-2.4c0.2,0.2,0.3,0.4,0.5,0.7c1,1.7,1.1,3.9,1,4.6c0,0,0,0-0.1,0   c0,0-0.1,0-0.1,0c0,0-0.1,0-0.1,0c0,0-0.1,0-0.1,0c0,0-0.1,0-0.1,0c0,0-0.1,0-0.1,0c0,0-0.1,0-0.1,0c-0.1,0-0.1,0-0.2,0   c0,0-0.1,0-0.1,0C38,34.3,37.9,34.3,37.9,34.3z M39,44.3c0.4-3.2,0.8-5.7,0.9-7.2l11.8-0.9c-1,3.6-1.1,10.9-0.8,19.8l-13.3,0   C38,51.6,38.6,47.5,39,44.3z M36.5,77.9c0-0.5-0.1-1-0.1-1.5l15.3-0.7c0,0.5,0.1,1.1,0.1,1.6c0,0,0,0.1,0,0.1L36.5,77.9z    M51.8,78.3c0,0.7-0.1,1.3-0.1,1.9l-14.9-0.1c-0.1-0.4-0.1-0.8-0.2-1.3L51.8,78.3z M36.4,75.2c0-0.8,0-1.6,0-2.5l15.2-0.3   c0,0.4,0,0.7,0.1,1.1c0,0.4,0,0.7,0.1,1L36.4,75.2z M37.4,57l13.4,0.3c0,0.5,0,1,0,1.6l-13.6-0.6C37.4,57.8,37.4,57.4,37.4,57z    M37.2,59.1L51,59.7c0,0.7,0.1,1.5,0.1,2.2L37,61.6C37.1,60.7,37.1,59.9,37.2,59.1z M36.9,62.6l14.2,0.1c0,0.9,0.1,1.8,0.1,2.7   l-14.5-0.8C36.8,64,36.8,63.3,36.9,62.6z M36.7,65.6l14.6,0.8c0,0.6,0.1,1.2,0.1,1.8l-14.8-0.5C36.6,67,36.6,66.3,36.7,65.6z    M51.4,69c0,0.8,0.1,1.7,0.1,2.5l-15.1,0.2c0-1,0.1-2,0.1-3.1L51.4,69z M29.1,48.6c-0.3,0-0.5,0-0.7-0.1l-0.8-0.1   c0-0.2,0.1-0.7,0.1-1c0.1-0.4,0.1-0.8,0.2-1.2c0.2,0,0.6-0.1,1.3-0.1c0.1,0,0.2,0,0.3,0L29.1,48.6z M29.6,48.7l0.3-2.4   c0.9,0,1.9,0.2,2.9,0.3l-0.6,2.3C31.3,48.8,30.4,48.8,29.6,48.7z M36.2,49.1c-0.1,0-0.1,0-0.2,0c-0.8,0-2-0.1-3.3-0.2l0.6-2.3   c1.2,0.2,2.4,0.4,3.1,0.5C36.4,47.9,36.3,48.7,36.2,49.1z M36.6,93C36.5,93,36.5,93,36.4,93c-0.5,0-1.3-0.7-1.8-1.5   c0-0.2,0.1-0.4,0.3-0.7l2,2C36.7,92.9,36.7,92.9,36.6,93z M37.1,92.4L35,90.4c0.2-0.3,0.3-0.6,0.6-0.9l2,2.4   C37.5,92,37.3,92.3,37.1,92.4z M37.9,91.4L35.9,89c0.3-0.4,0.6-0.8,0.9-1.3l2.1,2.1C38.6,90.4,38.3,90.9,37.9,91.4z M39.2,89.4   l-2.1-2.1c0.1-0.2,0.3-0.4,0.4-0.6l2.3,1.7C39.6,88.8,39.4,89.1,39.2,89.4z M47.1,87C47,87,47,87.1,47,87.1   c-0.8,0.3-1.6,0.5-2.4,0.5h0c-2.2,0-4.4-1-6.2-2.9c-0.7-0.7-1.1-1.9-1.5-3.6l14.5,0.2c-0.4,1.5-1,2.8-1.8,3.9L47.1,87z M49.7,88.7   c-0.2-0.2-0.3-0.4-0.5-0.6c0.5-0.4,1.1-0.8,1.5-1.3c0.1-0.1,0.2-0.2,0.2-0.3l0.6-0.4c0.3,0.3,0.6,0.6,0.8,0.9L49.7,88.7z    M55.2,91.4c-0.4,0.6-0.7,0.9-1.1,0.9c-0.2,0-0.6-0.1-1-0.4l2-1.4C55.4,91.1,55.3,91.3,55.2,91.4z M54.8,90.1l-2.2,1.5   c-0.3-0.2-0.7-0.5-1.1-0.9l2.5-1.8C54.4,89.4,54.6,89.8,54.8,90.1z M52.7,87.5c0.4,0.4,0.7,0.8,1,1.1l-2.5,1.8   c-0.3-0.3-0.7-0.8-1.2-1.2L52.7,87.5z M48.9,34.4c-1.4,0.1-2.8,0.2-4.1,0.3c-1.4,0.1-2.8,0.2-4,0.3c0-0.1,0.1-0.2,0.1-0.4   c0.6-2.2,1.5-9.1-0.2-12.9c-0.5-1.1-1.1-1.7-1.7-2.1c0,0,0,0,0.1-0.1c5.4-7.2,10.3-11.9,11.4-12.2c0.8,0.2,3.8,2.7,7.9,7.9   c-2.6,2.8-5.1,6.4-5.3,10c-0.2,3,1.2,5.7,4,7.8C55,33.6,52.4,34.2,48.9,34.4z M55.8,28.6c-0.6-1.1-0.8-2.2-0.8-3.4   c0-0.6,0.1-1.1,0.3-1.7l0.2,1c0,0,0,0.1,0.1,0.1c-0.2,0.6-0.2,1.3-0.2,1.9C55.4,27.2,55.5,28,55.8,28.6z M55.7,22.6   c0.2-0.6,0.5-1.2,0.8-1.8l0.3,1c-0.3,0.6-0.7,1.2-0.9,1.9L55.7,22.6z M56.8,20.2c0.3-0.5,0.6-1,1-1.5l0.2,1.1   c-0.3,0.4-0.7,0.9-1,1.3L56.8,20.2z M62.6,29.7c-1.2,0.4-2.5,0.7-3,0.4c-1.5-1-2.3-2.2-2.3-3.7c0-3.7,4.3-7.9,5.8-8.9   c0.4-0.3,0.8-0.4,1.2-0.4c1.5,0,3.3,1.6,3.9,5.2C68.8,26,67,28.4,62.6,29.7z M66.4,30.2c1-0.6,1.8-1.3,2.3-2l1,0.1   C68.8,29,67.7,29.7,66.4,30.2z M70.2,27.8l-1.1-0.1c0.2-0.3,0.3-0.5,0.5-0.8l1.5,0C70.8,27.2,70.5,27.6,70.2,27.8z M71.3,26.5   l-1.6,0c0.3-0.6,0.4-1.3,0.5-1.9l2.2-0.2C72.2,25.1,71.8,25.9,71.3,26.5z M72.5,23.8C72.5,23.8,72.5,23.8,72.5,23.8l-2.3,0.2   c0-0.7,0-1.3-0.1-2c0-0.1,0-0.2-0.1-0.3l2.7-0.7C72.8,22.1,72.7,23,72.5,23.8z"/><path d="M62.5,20.1c-2.3,0-4.2,1.9-4.2,4.2c0,2.3,1.9,4.2,4.2,4.2c2.3,0,4.2-1.9,4.2-4.2C66.7,22,64.8,20.1,62.5,20.1z M62.5,27.5   c-1.8,0-3.2-1.4-3.2-3.2s1.4-3.2,3.2-3.2c1.8,0,3.2,1.4,3.2,3.2S64.2,27.5,62.5,27.5z"/></g><text x="0" y="115" fill="#000000" font-size="5px" font-weight="bold" font-family="'Helvetica Neue', Helvetica, Arial-Unicode, Arial, Sans-serif">Created by Ana Lourenço</text><text x="0" y="120" fill="#000000" font-size="5px" font-weight="bold" font-family="'Helvetica Neue', Helvetica, Arial-Unicode, Arial, Sans-serif">from the Noun Project</text></svg>